<svg id="레이어_1" data-name="레이어 1" xmlns="http://www.w3.org/2000/svg" viewBox="0 0 1920 1000"><defs><style>.cls-1{fill:#7847ff;}.cls-2{fill:#8350fa;}.cls-3,.cls-4,.cls-5,.cls-6,.cls-7,.cls-9{fill:#8dff75;}.cls-3{opacity:0.63;}.cls-4{opacity:0.55;}.cls-6{opacity:0.84;}.cls-7{opacity:0.71;}.cls-8{fill:#786af5;}.cls-9{opacity:0.62;}</style></defs><g id="그룹_18577" data-name="그룹 18577"><rect id="사각형_24005" data-name="사각형 24005" class="cls-1" x="-90.03" y="-12.7" width="2158.35" height="1026.34"/></g><path id="패스_7715" data-name="패스 7715" class="cls-2" d="M802.54-472.55S1115.64,105.14,1680.11,383,2350.42,502,2350.42,502s70.56-807,48.51-824.66S802.54-472.55,802.54-472.55Z"/><path id="사각형_24202" data-name="사각형 24202" class="cls-3" d="M1830.07,99.71h179.86a77,77,0,0,1,77,77h0a77,77,0,0,1-77,77H1830.07a77,77,0,0,1-77-77h0A77,77,0,0,1,1830.07,99.71Z"/><path id="사각형_24198" data-name="사각형 24198" class="cls-4" d="M1404.52,206.51h104.54a34.29,34.29,0,0,1,34.29,34.28h0a34.29,34.29,0,0,1-34.29,34.29H1404.52a34.29,34.29,0,0,1-34.29-34.29h0A34.29,34.29,0,0,1,1404.52,206.51Z"/><path id="사각형_24200" data-name="사각형 24200" class="cls-5" d="M438.88,421.22H509.7a27.54,27.54,0,0,1,27.54,27.54h0A27.54,27.54,0,0,1,509.7,476.3H438.88a27.54,27.54,0,0,1-27.54-27.54h0A27.54,27.54,0,0,1,438.88,421.22Z"/><path id="사각형_24196" data-name="사각형 24196" class="cls-6" d="M-177.15,99.71H74.66A107.36,107.36,0,0,1,182,207.07h0A107.35,107.35,0,0,1,74.66,314.42H-177.15A107.35,107.35,0,0,1-284.5,207.07h0A107.36,107.36,0,0,1-177.15,99.71Z"/><path id="사각형_24197" data-name="사각형 24197" class="cls-7" d="M1672.06,679.77h321.51a107.35,107.35,0,0,1,107.35,107.35h0a107.36,107.36,0,0,1-107.35,107.36H1672.06a107.36,107.36,0,0,1-107.35-107.36h0A107.35,107.35,0,0,1,1672.06,679.77Z"/><path id="패스_7718" data-name="패스 7718" class="cls-8" d="M-99.15,419.5S993.29,723,1356.76,1108.52-347.52,981.68-347.52,981.68Z"/><path id="사각형_24201" data-name="사각형 24201" class="cls-9" d="M174.14,548.24H460.8a55.09,55.09,0,0,1,55.08,55.09h0a55.08,55.08,0,0,1-55.08,55.08H174.14a55.08,55.08,0,0,1-55.08-55.08h0A55.09,55.09,0,0,1,174.14,548.24Z"/></svg>