<svg xmlns="http://www.w3.org/2000/svg" viewBox="0 0 1309.55 258.36"><defs><style>.cls-1{fill:#fff;}.cls-2{fill:#8dff75;}</style></defs><g id="레이어_2" data-name="레이어 2"><g id="레이어_1-2" data-name="레이어 1"><path class="cls-1" d="M164.74,82.38h-6l-25.87,73.93a23.27,23.27,0,0,1-29.66,14.28h0a23.27,23.27,0,0,1-14.28-29.66l20.49-58.55H23.28A23.28,23.28,0,0,0,0,105.66V235.08a23.28,23.28,0,0,0,23.28,23.28H164.74A23.28,23.28,0,0,0,188,235.08V105.66A23.27,23.27,0,0,0,164.74,82.38ZM113.73,211a23.28,23.28,0,1,1-14.29-29.66A23.28,23.28,0,0,1,113.73,211Z"/><path class="cls-1" d="M165.21,63.89a23.27,23.27,0,0,0-14.28-29.66h0a23.29,23.29,0,0,0-29.66,14.28L109.42,82.38h49.32Z"/><path class="cls-2" d="M54.1,47.53c12.32.77,16.74,5.29,19.35,13.12a2.4,2.4,0,0,0,4.06.85c5.63-6.26,13.23-23.09,9-38.73-5-18.28-19.73-21.31-22.8-22A27,27,0,0,0,37.2,9,23.06,23.06,0,0,0,33,34.49C33.44,35.39,39.09,46.59,54.1,47.53Z"/><path class="cls-2" d="M451.07,33.74H413.36a8.75,8.75,0,0,0-8.54,5.17l-33.59,62.77L337.64,38.91a8.73,8.73,0,0,0-8.54-5.17H291.39c-5.6,0-7.95,3.45-5,8.62l61.28,104.52v80.9c0,4.6,2.65,7.19,7.37,7.19h32.4c4.72,0,7.37-2.59,7.37-7.19v-80.9L456.08,42.36C459,37.19,456.67,33.74,451.07,33.74Z"/><path class="cls-2" d="M512.64,87.21c-43.31,0-78.07,33.06-78.07,75.89S469.33,239,512.64,239s78.08-33.06,78.08-75.89S556,87.21,512.64,87.21Zm0,109.81c-19.15,0-33.88-13.51-33.88-33.92s14.73-33.92,33.88-33.92,33.88,13.51,33.88,33.92S531.79,197,512.64,197Z"/><path class="cls-1" d="M850.26,93.32h0c-14.64,2.14-23.18,4.73-32,15l-.07-9.89c0-4.6-2.65-7.19-7.36-7.19H781.33c-4.72,0-7.37,2.59-7.37,7.19V227.78c0,4.6,2.65,7.18,7.37,7.18h29.46c4.71,0,7.36-2.58,7.36-7.18V171.7A48.24,48.24,0,0,1,819.73,159c4.7-17.26,16.39-22.84,30.83-22.34,3.83,0,5.89-2.3,5.89-6.9l1.47-29.53C857.92,95.62,855.26,92.46,850.26,93.32Z"/><path class="cls-1" d="M944.24,87.21c-46.55,0-79,33.06-79,75.89S896.52,239,945.42,239c30.05,0,54.21-12.94,65.7-38,2.36-4.59-.59-8-5.89-8l-28.28.28c-3.83,0-6.19,1.44-9.14,3.74-5.3,4.31-13.55,7.19-21.8,7.19-15.35,0-29.1-6.78-34.45-23.86h98.38c4.42,0,7.37-2,8-6.61.29-3.45.59-6.9.59-10.64C1018.49,119.69,987.26,87.21,944.24,87.21Zm-32.87,60.37c4.56-14.34,16-22.14,32.58-22.14,13,0,26,5.78,30.55,22.14Z"/><path class="cls-1" d="M1248.27,87.21c-30,0-57.15,15.81-61,46.85-.3,4.89,2.65,7.48,7.36,7.48h28.88c4.42,0,5.89-2.3,7.66-6.33,2.35-4.88,8-8.33,17.08-8.33,12.38,0,18.27,6.32,18.27,20.41l-.26,10.81c-7.9-5.87-19.24-8.8-37.75-8.8-25.92,0-48.61,14.95-48.61,44.85S1202.61,239,1228.53,239c18.51,0,29.85-3.05,37.75-12.07l.26.86c0,4.6,2.65,7.19,7.37,7.19h28.28c4.71,0,7.36-2.59,7.36-7.19V144.41C1309.55,105.61,1280.68,87.21,1248.27,87.21Zm-9.55,121.22c-10.11,0-19.06-4.13-19.06-13.76s8.95-13.76,19.06-13.76,19.71,6.88,19.71,13.76C1258.43,202.09,1248.83,208.43,1238.72,208.43Z"/><path class="cls-2" d="M734.19,91.23H704.73c-4.71,0-7.37,2.59-7.37,7.19v76.75c0,17-8.24,24.15-21.5,24.15-11.2,0-19.74-6.32-19.74-20.7V98.42c0-4.6-2.65-7.19-7.37-7.19H619.29c-4.71,0-7.36,2.59-7.36,7.19v83.94c0,35.93,22.21,52.61,49.61,52.61h72.65c4.72,0,7.37-2.59,7.37-7.19V98.42C741.56,93.82,738.91,91.23,734.19,91.23Z"/><path class="cls-1" d="M1127.46,179.54l-11.87-16.44,11.87-17.33,31.44-45.91c3.24-4.89,1.18-8.63-4.71-8.63h-33.88a9.82,9.82,0,0,0-8.84,4.6l-10.73,16.33-13.61,20.72V112.16h0V40.93c0-4.6-2.65-7.19-7.37-7.19H1050.3c-4.71,0-7.36,2.59-7.36,7.19V227.78c0,4.6,2.65,7.19,7.36,7.19h29.46c4.72,0,7.37-2.59,7.37-7.19V215h0V191.43L1103.65,215l10.77,15.36a9.81,9.81,0,0,0,8.83,4.6h33.59c5.89,0,8-3.74,4.42-8.63Z"/></g></g></svg>